<svg xmlns="http://www.w3.org/2000/svg" viewBox="0 0 512 512">
  <defs>
    <linearGradient id="g" x1="0" y1="0" x2="1" y2="1">
      <stop offset="0" stop-color="#FF8A5B"/>
      <stop offset="1" stop-color="#FF4F81"/>
    </linearGradient>
  </defs>
  <rect width="512" height="512" fill="url(#g)"/>
  <path d="M136 150h240a40 40 0 0 1 40 40v120a40 40 0 0 1-40 40H250l-70 56v-56h-44a40 40 0 0 1-40-40V190a40 40 0 0 1 40-40z" fill="#fff"/>
  <text x="256" y="282" text-anchor="middle" font-family="Arial Rounded MT Bold, Helvetica, Arial, sans-serif" font-weight="900" font-size="112" fill="#FF5A6E">Hi!</text>
  <path d="M368 118c-10-20-42-16-42 8 0 18 24 32 42 46 18-14 42-28 42-46 0-24-32-28-42-8z" fill="#FFD166"/>
</svg>
